<?xml version="1.0" encoding="UTF-8" standalone="no"?>
<svg
   xmlns:dc="http://purl.org/dc/elements/1.1/"
   xmlns:cc="http://creativecommons.org/ns#"
   xmlns:rdf="http://www.w3.org/1999/02/22-rdf-syntax-ns#"
   xmlns:svg="http://www.w3.org/2000/svg"
   xmlns="http://www.w3.org/2000/svg"
   width="100%"
   height="100%"
   viewBox="0 0 64 64"
   version="1.1"
   xml:space="preserve"
   style="fill-rule:evenodd;clip-rule:evenodd;stroke-linecap:round;stroke-linejoin:round;stroke-miterlimit:2;"
   id="svg13">
  <metadata
   id="metadata19">
    <rdf:RDF>
      <cc:Work
   rdf:about="">
        <dc:format>image/svg+xml</dc:format>

        <dc:type
   rdf:resource="http://purl.org/dc/dcmitype/StillImage" />

      </cc:Work>

    </rdf:RDF>

  </metadata>

  <defs
   id="defs17" />

  
  <path
   d="M13.75,56c0,0 -5,-7.566 -5,-19c0,-11.434 5.332,-8.909 3,-20c0,0 6.391,8.123 6,16c0,0 0.015,-8.682 10,-15c9.985,-6.318 10,-10 10,-10c0,0 6.877,7.303 9,17c2.123,9.697 -1,15 -1,15c0,0 6.606,-4.632 7,-10c0,0 7.734,17.053 -4,26"
   style="fill:none;stroke:#222a33;stroke-width:2px;"
   id="path3" />

  <path
   d="M17.75,33c0,0 -0.499,2.865 0.25,8"
   style="fill:none;stroke:#222a33;stroke-width:2px;"
   id="path5" />

  <path
   d="M25.917,56c0,0 -1.667,-2.522 -1.667,-6.333c0,-3.812 1.777,-2.97 1,-6.667c0,0 2.13,2.708 2,5.333c0,0 0.005,-2.894 3.333,-5c3.329,-2.106 3.334,-3.333 3.334,-3.333c0,0 2.292,2.434 3,5.667c0.707,3.232 -0.334,5 -0.334,5c0,0 2.202,-1.544 2.334,-3.334c0,0 2.578,5.685 -1.334,8.667"
   style="fill:none;stroke:#222a33;stroke-width:2px;"
   id="path7" />

  <path
   d="M21,36.5c-0.254,-0.624 -0.89,-8.275 7,-14"
   style="fill:none;stroke:#222a33;stroke-width:2px;"
   id="path9" />

  <path
   d="M48,52c0,0 4.051,-2.844 4,-10"
   style="fill:none;stroke:#222a33;stroke-width:2px;"
   id="path11" />

</svg>
