<?xml version="1.0" encoding="utf-8"?>
<!-- Generator: Adobe Illustrator 16.0.0, SVG Export Plug-In . SVG Version: 6.00 Build 0)  -->
<!DOCTYPE svg PUBLIC "-//W3C//DTD SVG 1.0//EN" "http://www.w3.org/TR/2001/REC-SVG-20010904/DTD/svg10.dtd">
<svg version="1.0" id="Layer_1" xmlns="http://www.w3.org/2000/svg" xmlns:xlink="http://www.w3.org/1999/xlink" x="0px" y="0px"
	 width="100px" height="100px" viewBox="0 0 100 100" enable-background="new 0 0 100 100" xml:space="preserve">
<path d="M73.359,26.641c9.7,0.524,17.142-6.914,16.611-16.614C80.271,9.499,72.832,16.934,73.359,26.641z"/>
<path d="M70,83.333V59.492c12.136-2.327,20.677-12.889,19.958-26.116C81.895,32.941,74.831,35.96,70,41.12V10h-6.667v15.811
	c-7.076-10.234-19.157-16.519-33.27-15.745c-1.143,21.019,13.312,37.563,33.27,39.658v33.609H44.035
	c2.329-9.131,2.443-18.961-0.171-28.707l-1.667-6.221l-12.881,3.45L18.102,10l-6.438,1.726l11.214,41.858L10,57.034l1.667,6.218
	c2.019,7.536,5.483,14.284,9.982,20.081H10V90h80v-6.667H70z M74.912,45.586c2.061-2.181,4.632-3.763,7.517-4.681
	c-0.814,2.578-2.168,4.909-4.011,6.855c-2.063,2.174-4.632,3.76-7.513,4.671C71.719,49.86,73.069,47.533,74.912,45.586z
	 M44.95,33.919c-4.365-4.609-7.1-10.475-7.976-16.947c7.028,0.951,13.326,4.095,18.065,9.095c4.368,4.613,7.106,10.482,7.985,16.959
	C55.989,42.07,49.688,38.919,44.95,33.919z M37.137,83.333h-6.716c-5.774-5.989-10.008-13.34-12.257-21.585l6.439-1.726l2.588,9.658
	l6.438-1.725l-2.588-9.658l6.442-1.726C39.831,65.495,39.663,74.685,37.137,83.333z"/>
</svg>
