<svg xmlns="http://www.w3.org/2000/svg" enable-background="new 0 0 50 50" viewBox="0 0 50 50"><path d="M42.3 30.2c-.3.3-.6.6-.9.9 2.5.9 4.6 2.4 5.7 3.3-3.3 2.7-7.6 4.6-12 3.9 3.7-.6 6.8-2.8 8.2-3.9-.7-.6-1.8-1.4-3.2-2.1-3 2.4-6.5 3.3-10.4 3.3-.5 0-.9 0-1.4 0-.1.4-.2.8-.4 1.1 11.8 7.6 20.6-2.2 21-2.3C49 34.4 46.3 31.7 42.3 30.2zM22 36.7c-.2-.3-.4-.7-.4-1.1-.4 0-.9 0-1.3 0-3.8 0-7.5-.9-10.4-3.3-1.4.8-2.5 1.6-3.2 2.1 1.5 1.2 4.5 3.3 8.2 3.9-4.3.7-8.6-1.2-11.9-3.9 1.1-.9 3.2-2.3 5.7-3.3-.3-.3-.6-.6-.9-.9-4 1.5-6.7 4.2-6.7 4.2C1.6 34.5 10.1 44.3 22 36.7z"/><path d="M40.1 31.5L40.1 31.5c4-3.2 5.7-8.9 5.7-9.1 0 0-3.7-.9-7.9-.3-.1.4-.2.8-.3 1.3 2.6-.5 5.1-.3 6.5 0-1.6 4-4.3 7.8-8.4 9.4 2.3-1.9 4.1-4.7 5.2-7.5-.9-.1-2.3-.3-3.8-.2-1.2 3.2-4 6.5-8.8 8.8.1.3.2.7.2 1.1C32.7 35.1 36.9 34.3 40.1 31.5zM5.9 23.4c1.4-.2 3.9-.4 6.5 0-.1-.4-.2-.8-.3-1.3-4.2-.7-7.9.3-7.9.3.1.1 1.6 5.5 5.7 9 0 0 0 0 0 0 2.3 2.1 6.3 3.7 11.6 3.4 0-.4.1-.7.2-1.1-4-1.9-7.2-4.8-8.8-8.8-1.6-.1-2.9.1-3.9.2 1.1 2.8 2.9 5.6 5.2 7.5C10.2 31.2 7.4 27.4 5.9 23.4z"/><path d="M36.6 24.3C36.6 24.3 36.6 24.3 36.6 24.3c1.8-4.8.4-10.6.4-10.7 0 0-3.7 1-7 3.7.1.4.3.8.4 1.2 2-1.7 4.3-2.8 5.6-3.3.7 4.3.2 9-2.6 12.3 1.1-2.8 1.2-6.1.7-9.1-.9.3-2.1.9-3.5 1.7.6 3.8-.5 7.6-2.5 10.9-.3.5-.6.9-.8 1.3.2.2.4.5.6.8C31.9 31.3 35.1 28.4 36.6 24.3zM28 19.3C28 19.3 28 19.4 28 19.3 28 19.4 28 19.3 28 19.3L28 19.3zM22.6 32.4c-2.5-3.6-4-7.8-3.3-12.2-1.3-.8-2.6-1.4-3.5-1.7-.4 2.9-.3 6.3.7 9.1-2.7-3.4-3.3-8-2.6-12.3 1.3.5 3.6 1.6 5.7 3.3.1-.4.2-.8.4-1.2-3.3-2.7-7-3.7-7-3.7 0 .1-1.4 5.4.4 10.7v0c1.4 4.1 4.7 6.9 8.6 8.9C22.2 32.9 22.3 32.7 22.6 32.4z"/><path d="M25,10.4c-0.1,0.1-4,4.1-5,9.5c0,0.5-1.7,5.2,3.1,12.1c0.5-0.4,1.2-0.6,1.9-0.6s1.3,0.2,1.9,0.6c4.5-6.5,3.1-11.8,3.1-12.1
		C29.9,19.6,25.1,10.5,25,10.4z M28.9,24.3c-0.5-3-2-5.8-3.9-8.2c-1.9,2.4-3.4,5.2-3.9,8.2c-0.8-4.2,1.3-8.6,3.9-11.9
		C27.7,15.7,29.6,20,28.9,24.3z"/><circle cx="25" cy="34.9" r="2.5"/></svg>