<?xml version="1.0" encoding="utf-8"?>
<!-- Generator: Adobe Illustrator 16.0.0, SVG Export Plug-In . SVG Version: 6.00 Build 0)  -->
<!DOCTYPE svg PUBLIC "-//W3C//DTD SVG 1.0//EN" "http://www.w3.org/TR/2001/REC-SVG-20010904/DTD/svg10.dtd">
<svg version="1.0" id="Layer_1" xmlns="http://www.w3.org/2000/svg" xmlns:xlink="http://www.w3.org/1999/xlink" x="0px" y="0px"
	 width="100px" height="100px" viewBox="0 0 100 100" enable-background="new 0 0 100 100" xml:space="preserve">
<path d="M73.997,81.724c-4.944,2.051-10.667,2.209-15.999,0.002c-4.938-2.047-10.664-2.209-15.999-0.002
	c-4.945,2.051-10.668,2.209-16,0.002C21.062,79.679,15.332,79.517,10,81.724l2.549,6.158c3.513-1.452,7.386-1.455,10.901,0.003
	c6.807,2.819,14.297,2.822,21.098-0.003c3.519-1.452,7.389-1.455,10.901,0.003c3.401,1.41,6.976,2.113,10.547,2.113
	c3.577,0,7.151-0.703,10.55-2.116L73.997,81.724z"/>
<path d="M23.45,74.552c6.807,2.818,14.297,2.822,21.098-0.004c3.519-1.451,7.389-1.455,10.901,0.004
	c3.401,1.41,6.976,2.113,10.547,2.113c3.577,0,7.151-0.703,10.55-2.117c3.516-1.451,7.383-1.455,10.898,0.004l2.553-6.158
	c-4.938-2.049-10.664-2.211-16-0.004c-4.944,2.051-10.667,2.211-15.999,0.004c-4.938-2.049-10.664-2.211-15.999-0.004
	c-4.945,2.051-10.668,2.211-16,0.004L23.45,74.552z"/>
<path d="M41.999,55.056c-4.945,2.051-10.668,2.211-16,0.004C21.062,53.013,15.332,52.849,10,55.056l2.549,6.16
	c3.513-1.453,7.386-1.455,10.901,0.002c6.807,2.82,14.297,2.822,21.098-0.002L41.999,55.056z"/>
<path d="M90,36.667V30H79.528c-0.313-1.211-0.795-2.347-1.413-3.398l7.409-7.409l-4.717-4.714l-7.409,7.406
	c-1.052-0.619-2.188-1.097-3.398-1.413V10h-6.667v10.472c-1.211,0.313-2.347,0.794-3.401,1.413l-7.405-7.406l-4.714,4.714
	l7.405,7.409c-0.618,1.051-1.1,2.188-1.412,3.398H43.333v6.667h10.473c0.313,1.214,0.794,2.351,1.412,3.402l-7.405,7.408
	l4.714,4.715l7.405-7.41c1.055,0.622,2.19,1.101,3.401,1.416v10.469H70V46.195c1.211-0.313,2.347-0.794,3.398-1.413l7.409,7.41
	l4.717-4.715l-7.409-7.408c0.618-1.055,1.101-2.191,1.413-3.402H90z M66.663,40C62.985,40,60,37.019,60,33.334
	c0-3.682,2.985-6.667,6.663-6.667c3.686,0,6.67,2.985,6.67,6.667C73.333,37.019,70.349,40,66.663,40z"/>
</svg>
