<svg xmlns="http://www.w3.org/2000/svg" viewBox="0 0 512 512"><title>Artboard 124</title><g id="Baby_Feet" data-name="Baby Feet"><circle cx="224" cy="74.66667" r="32" style="fill:#2b2c53"/><circle cx="170.66667" cy="42.66667" r="21.33333" style="fill:#2b2c53"/><circle cx="128" cy="42.66667" r="21.33333" style="fill:#2b2c53"/><circle cx="85.33333" cy="64" r="21.33333" style="fill:#2b2c53"/><circle cx="53.33333" cy="96" r="10.66667" style="fill:#2b2c53"/><circle cx="309.33333" cy="181.33333" r="32" style="fill:#2b2c53"/><circle cx="362.66667" cy="149.33333" r="21.33333" style="fill:#2b2c53"/><circle cx="405.33333" cy="149.33333" r="21.33333" style="fill:#2b2c53"/><circle cx="448" cy="170.66667" r="21.33333" style="fill:#2b2c53"/><circle cx="480" cy="202.66667" r="10.66667" style="fill:#2b2c53"/><path d="M149.15144,247.69631v-1.71158A32.0926,32.0926,0,0,1,164.93481,218.429c28.43592-16.93781,48.10777-45.35184,48.10777-74.3444,0-40.46292-45.86676-62.86818-84.11222-58.12311C-21.39711,115.198,56.2213,319.587,122.15186,368.34162c27.41766,20.27491,65.46915,20.36311,84.07608-11.45251a53.0393,53.0393,0,0,0,.0737-52.58852A53.75007,53.75007,0,0,0,174.77283,279.222C160.15709,274.955,149.15144,262.98351,149.15144,247.69631Z" style="fill:#38395e"/><path d="M206.22917,356.88542l-36.83334-21.54167a10.52845,10.52845,0,0,0,.02084-9.59375,11.25214,11.25214,0,0,0-6.625-5.58333c-33.65625-9.8125-56.30209-39.625-56.30209-74.17709a75.15352,75.15352,0,0,1,36.61459-64.21875c16.05208-9.57291,27.27083-25.0625,27.27083-37.6875h42.66667c0,28.1875-18.4375,56.66667-48.10417,74.34375a32.28584,32.28584,0,0,0-15.78125,27.5625c0,15.88542,9.8125,28.625,25.61458,33.22917a53.48774,53.48774,0,0,1,31.45834,77.66667Z" style="fill:#2b2c53"/><path d="M383.99521,355.17114v-1.71159a32.0926,32.0926,0,0,0-15.78337-27.55571c-28.43592-16.9378-48.10778-45.35183-48.10778-74.34439,0-40.46293,45.86676-62.86818,84.11223-58.12312,150.32747,29.23649,72.70906,233.62552,6.7785,282.38011-27.41766,20.27492-65.46915,20.36312-84.07609-11.45251a53.0393,53.0393,0,0,1-.07369-52.58852,53.75007,53.75007,0,0,1,31.52881-25.07862C372.98956,382.42986,383.99521,370.45833,383.99521,355.17114Z" style="fill:#38395e"/><path d="M370.73958,489.85417c-18.64583,0-34.20833-9.05209-43.82291-25.48959a52.96554,52.96554,0,0,1-.0625-52.60416,54.05279,54.05279,0,0,1,31.52083-25.0625C373.69792,382.21875,384,369.54167,384,355.16667c0-12.625-5.75-23.29167-15.79167-29.26042-29.66666-17.67708-48.10416-46.15625-48.10416-74.34375h42.66666c0,12.625,11.21875,28.11458,27.27084,37.67708,22.92708,13.65625,36.625,38.30209,36.625,65.92709,0,33.51041-22.64584,62.63541-56.33334,72.48958a11.20739,11.20739,0,0,0-6.60416,5.5625,10.51847,10.51847,0,0,0,.02083,9.60417c2.17708,3.73958,3.91667,4.36458,6.98958,4.36458Z" style="fill:#2b2c53"/></g></svg>